<svg xmlns="http://www.w3.org/2000/svg" id="Layer_1" viewBox="0 0 1440 700"><defs><style>.st1,.st11,.st12,.st2,.st4,.st5,.st6,.st7,.st8,.st9{fill-rule:evenodd}.st1,.st13{fill:#b2dfdf}.st14,.st2{fill:#d9f2f2}.st7{fill:#004d4d}.st4{fill:#007a7a}.st17{fill:#7ec8c8}.st5{fill:#ff9715}.st20{fill:#fff}.st6{fill:#b28b67}.st8{fill:#e8cebc}.st9{fill:#d4b09a}.st23{stroke-linecap:round;fill:none;stroke:#7ec8c8;stroke-linejoin:round;stroke-width:3px}.st11{fill:#066}.st12{fill:#997659}</style></defs><ellipse cx="720" cy="480" rx="680" ry="220" style="fill:#d9f2f2;isolation:isolate;opacity:.3"/><ellipse cx="900" cy="380" rx="520" ry="200" style="fill:#fff8d2;opacity:.2;isolation:isolate"/><path d="M494.8 52.6h5v180h-5z" class="st14"/><ellipse cx="499.8" cy="212.1" rx="48" ry="26" style="fill:#ff9715"/><path d="M560.3 225.1c0-32-28-58-60.5-58s-59.5 26-59.5 58" class="st2"/><g style="opacity:.6"><path d="M1015 52.6h4v140h-4z" class="st14"/><ellipse cx="1017" cy="158" rx="32" ry="18" style="fill:#ffb515"/><path d="M1054 170c0-22-17-40-37-40s-37 18-37 40" class="st2"/></g><path d="m704 497.6-50 180m370-180 50 180" style="stroke-linecap:round;fill:none;stroke:#b2dfdf;stroke-width:9px"/><path d="M664 607.6h400" style="stroke-width:6px;stroke-linecap:round;fill:none;stroke:#b2dfdf"/><rect width="360" height="13" x="684" y="192.6" class="st13" rx="6" ry="6"/><rect width="360" height="295" x="684" y="204.6" rx="6" ry="6" style="fill:#f0fafa"/><rect width="108" height="34" x="694" y="213.6" class="st14" rx="5" ry="5"/><rect width="108" height="34" x="810" y="213.6" class="st13" rx="5" ry="5"/><rect width="108" height="34" x="926" y="213.6" class="st17" rx="5" ry="5"/><rect width="72" height="7" x="712" y="224.6" class="st13" rx="3" ry="3"/><rect width="80" height="7" x="824" y="224.6" class="st14" rx="3" ry="3"/><rect width="66" height="7" x="946" y="224.6" class="st14" rx="3" ry="3"/><path d="M806 253.6v240m116-240v240" style="fill:none;stroke:#d9f2f2;stroke-width:2px"/><rect width="96" height="68" x="700" y="261.6" class="st20" rx="4" ry="4"/><rect width="96" height="7" x="700" y="261.6" class="st17" rx="3" ry="3"/><path d="M711 275.6h56c1.7 0 3 1.3 3 3s-1.3 3-3 3h-56c-1.7 0-3-1.3-3-3s1.3-3 3-3m0 12h70c1.7 0 3 1.3 3 3s-1.3 3-3 3h-70c-1.7 0-3-1.3-3-3s1.3-3 3-3m0 12h46c1.7 0 3 1.3 3 3s-1.3 3-3 3h-46c-1.7 0-3-1.3-3-3s1.3-3 3-3" class="st2"/><rect width="96" height="54" x="700" y="337.6" class="st20" rx="4" ry="4"/><rect width="96" height="7" x="700" y="337.6" class="st13" rx="3" ry="3"/><path d="M711 352.6h64c1.7 0 3 1.3 3 3s-1.3 3-3 3h-64c-1.7 0-3-1.3-3-3s1.3-3 3-3m0 12h42c1.7 0 3 1.3 3 3s-1.3 3-3 3h-42c-1.7 0-3-1.3-3-3s1.3-3 3-3" class="st2"/><rect width="96" height="54" x="700" y="399.6" class="st20" rx="4" ry="4"/><rect width="96" height="7" x="700" y="399.6" class="st14" rx="3" ry="3"/><path d="M711 414.6h70c1.7 0 3 1.3 3 3s-1.3 3-3 3h-70c-1.7 0-3-1.3-3-3s1.3-3 3-3m0 12h50c1.7 0 3 1.3 3 3s-1.3 3-3 3h-50c-1.7 0-3-1.3-3-3s1.3-3 3-3" class="st2"/><rect width="96" height="80" x="816" y="261.6" class="st20" rx="4" ry="4"/><rect width="96" height="7" x="816" y="261.6" class="st17" rx="3" ry="3"/><path d="M827 275.6h72c1.7 0 3 1.3 3 3s-1.3 3-3 3h-72c-1.7 0-3-1.3-3-3s1.3-3 3-3m0 12h56c1.7 0 3 1.3 3 3s-1.3 3-3 3h-56c-1.7 0-3-1.3-3-3s1.3-3 3-3m0 12h64c1.7 0 3 1.3 3 3s-1.3 3-3 3h-64c-1.7 0-3-1.3-3-3s1.3-3 3-3" class="st2"/><circle cx="899" cy="327.6" r="8" class="st13"/><rect width="96" height="54" x="816" y="350.6" class="st20" rx="4" ry="4"/><rect width="96" height="7" x="816" y="350.6" class="st13" rx="3" ry="3"/><path d="M827 365.6h60c1.7 0 3 1.3 3 3s-1.3 3-3 3h-60c-1.7 0-3-1.3-3-3s1.3-3 3-3m0 12h46c1.7 0 3 1.3 3 3s-1.3 3-3 3h-46c-1.7 0-3-1.3-3-3s1.3-3 3-3" class="st2"/><rect width="96" height="54" x="932" y="261.6" class="st20" rx="4" ry="4"/><rect width="96" height="7" x="932" y="261.6" class="st17" rx="3" ry="3"/><path d="M943 275.6h64c1.7 0 3 1.3 3 3s-1.3 3-3 3h-64c-1.7 0-3-1.3-3-3s1.3-3 3-3m0 12h46c1.7 0 3 1.3 3 3s-1.3 3-3 3h-46c-1.7 0-3-1.3-3-3s1.3-3 3-3" class="st2"/><path d="m972 301.6 6 6 10-12" class="st23"/><rect width="96" height="54" x="932" y="323.6" class="st20" rx="4" ry="4"/><rect width="96" height="7" x="932" y="323.6" class="st13" rx="3" ry="3"/><path d="M943 337.6h70c1.7 0 3 1.3 3 3s-1.3 3-3 3h-70c-1.7 0-3-1.3-3-3s1.3-3 3-3m0 12h52c1.7 0 3 1.3 3 3s-1.3 3-3 3h-52c-1.7 0-3-1.3-3-3s1.3-3 3-3" class="st2"/><path d="m972 363.6 6 6 10-12" class="st23"/><rect width="96" height="54" x="932" y="385.6" class="st20" rx="4" ry="4"/><rect width="96" height="7" x="932" y="385.6" class="st14" rx="3" ry="3"/><path d="M943 399.6h56c1.7 0 3 1.3 3 3s-1.3 3-3 3h-56c-1.7 0-3-1.3-3-3s1.3-3 3-3m0 12h40c1.7 0 3 1.3 3 3s-1.3 3-3 3h-40c-1.7 0-3-1.3-3-3s1.3-3 3-3" class="st2"/><path d="m972 425.6 6 6 10-12" class="st23"/><path id="Skirt-Shadow" d="M570.3 554.8c22.9 6.4 42.6 9.6 59.2 9.6s32-4.9 46.2-14.7c-22.4-6.5-40.8-9.8-55.3-9.8s-31.2 5-50.1 15Z" class="st11"/><g id="Head_x2F_Front_x2F_Long"><path id="Hair-Back" d="M618.5 320.7c6.3 10.6 17.5 35.8 14.4 41.1l-26.7 7.2v-.1c-10.2 1.6-20.1-4.8-22.9-15l-5-18.8c-2.9-10.9 3.6-22.2 14.5-25.1l1.8-.5c9.8-2.6 19.9 2.3 23.9 11.3Z" class="st7"/><path id="Head" d="M592.7 347.5c-5.6-3.8-10.1-9.1-11.4-16-3.9-19.9 24.7-23 32.7-14.5 8 8.4 14 33.6 7.6 37.2-2.6 1.4-8.9 1.3-15.8-.7l10.8 25.2-22.1 5.9-1.8-37.2Z" class="st6"/><path id="Hair-Front" d="M597.8 342.6c3.9 10.6 6.8 23.1 4.6 26.8l-26.7 7.2c-8.4-25.2 8.7-19.2 2.2-43.3.7-1.1 1.3-2.2 1.9-3.2l-.2-.7c2.1-10.6 6.7-16.9 13.8-18.8 10.7-2.9 15.3 1.2 19.3 4.6-.2 7.9-8.2 11.2-14.4 17.7-1.1-.5-2.3-.6-3.5-.3-2.8.7-4.5 3.6-3.7 6.4s3.6 4.4 6.4 3.7.2 0 .2 0Z" class="st7"/></g><path id="Leg" d="M649.3 573.6c-.2-.3-.4-.7-.6-1.1-3.1-8.1-52-94.9-56.9-110.8h55.1c3.7 12.1 20.4 87.9 22.7 103 7.4 23.8 22.7 101.1 24.6 106.4 2 5.6-9.5 11.5-12.6 4.6-4.9-11-16.5-41.5-21.7-60.1-4.9-17.4-8.8-33.1-10.8-42Z" class="st12"/><g id="Accessories_x2F_Shoe_x2F_Flat-Sneaker"><path id="shoe" d="M559.3 675.5c-1.1 2.8-1.7 4.9-1.7 6.4s.2 4.2.7 7.5c2 0 19.9.5 53.8 1.2 1.5-4.6.8-7.1-2.2-7.5s-5.5-.8-7.5-1.2l-24.7-11.7c-.5-.2-1 0-1.3.5l-1.7 3.9c-2.8 1.2-5.1 1.8-6.8 1.8s-3.4-.6-5.8-1.8c-.9-.5-2.1 0-2.5.9v.1Z" class="st2"/></g><g id="Accessories_x2F_Shoe_x2F_Flat-Sneaker1" data-name="Accessories_x2F_Shoe_x2F_Flat-Sneaker"><path id="shoe1" d="M678.3 674.9c-1.1 2.8-1.6 5-1.6 6.4s.3 4.2.9 7.5h53.8q2.1-6.9-2.4-7.5c-4.5-.6-5.5-.7-7.5-1l-25-11.1c-.5-.2-1 0-1.3.5l-1.6 3.9c-2.8 1.3-5.1 2-6.8 2s-3.4-.6-5.9-1.7c-1-.4-2.1 0-2.5.9v.1Z" class="st2" data-name="shoe"/></g><path id="Leg1" d="M588.2 449.5c2.6 67.5-.5 102.4-1 108.5-.6 6.1-8.4 45.9-26.9 121.2l15.2-5.2c29.3-69 39.3-104.9 42.7-114s12.3-45.9 26.8-110.5h-56.7Z" class="st6" data-name="Leg"/><path id="Skirt" d="M589 461.7c21.5-6.1 41.8-6.1 61 0 6.7 30.3 22.9 42.4 25.7 88.9-32.4 16-72.4-11.4-105.8 4.2-9.5-21.9 3.8-74.6 19.1-93.1" class="st4"/><g id="Body_x2F_Pointing-Forward"><path id="Skin" d="m639.9 398.9 29.5-23.5c4.3-7.4 8.8-13.3 13.4-17.7 1.5-1 4.2-1.9 2.4 3.3-1.8 5.1-3.5 10.6-1.9 11.7 1.6 1.2 4.6-1.4 6.6.7 1.3 1.4-3.9 4.9-15.8 10.5l-19.9 25.7zm53.6 6 12.9-10.3c.7-8 2.4-12.2 5.2-12.7 2-1.4 0 8.9 3.8 7.3 3.9-1.6 12.6-10.6 14.5-9.5 2.9 1.8 1.9 8.9-.2 12.8-3.9 7.2-7.6 10.1-17.3 14.7-5.1 2.4-10.3 6.4-15.7 11.9l-3.3-14.1Z" class="st12"/><path id="Sleeve" d="M623.3 397.7c11.4-2.1 26.2-7.2 40.6-20.3l8.9 13c-9.3 13-23.4 24.9-37.2 26.9-10.9 1.6-18.8-10.5-12.3-19.6" class="st7"/><path id="Clothes" d="M642.7 417.7c12.6.9 32.3-6.3 59.1-21.4q14.4 19.95 15.3 29.4c-22.2 17-42.2 26.4-59.4 29.8 2.3 10.1 2.8 20 .2 29.6-5.4 19.8-58.8 11.8-75.2 18.1-16.7-32.5 1.4-50-2.5-72-4.2-24.1 8.7-64.5 11.5-65l26-4.6c4.7 18.1 15.5 37.1 24.9 56.1Z" class="st11"/></g><g id="humaaans_x2F_standing-16"><g id="humaaan-4"><g id="Head_x2F_Front_x2F_Curly"><path id="Head1" d="M1258.6 346.3c4.4-5.2 7.4-11.5 6.9-18.6-1.4-20.4-29.8-15.9-35.4-5.6-5.5 10.3-4.9 36.4 2.3 38.3 2.8.7 8.9-1.1 15.1-4.8l-3.9 27.4h22.9z" class="st6" data-name="Head"/><path id="hair" d="M1220 307.9c.5-1.7 1.7-3.1 3.5-3.5.4-.1.8-.1 1.3-.1h.3v-.4c0-.3.2-.6.3-.9.4-1 1-1.8 1.7-2.5 1.4-1.3 3.2-2.3 5.1-2.4 1 0 2.1 0 3.1.4l1.5.6c.1 0 .6.4.8.4s.5-.4.6-.5c1.6-1.2 3.6-1.7 5.6-1.7 2.3 0 4.5.1 6.4 1.5.4.3.8.6 1.2 1l.6.6c.1.1.2.2.3.4.2.2.1.3.4.1.9-.6 2-.8 3-.7.6 0 1.3.3 1.8.5.2 0 .7.4.9.4s.7-.3.9-.4c1.2-.4 2.4-.5 3.7-.3s2.5.7 3.6 1.4c.5.3 1 .7 1.3 1.2.2.2.3.4.5.6.1.1.3.2.4.4 0 0 1.4-.6 1.5-.7.7-.2 1.4-.1 2.1 0 1.3.4 2.5 1.4 3.4 2.4.5.5.9 1.1 1.3 1.7.2.3.3.6.5.9 0 .1.1.3.2.5s.2.2.4.2c1.1.4 2.1 1 2.8 1.9.8.9 1.3 2 1.5 3.1v.4h.4c.3 0 .6 0 .8.1.5.1 1 .3 1.5.5 1.8.9 3.2 2.6 3.8 4.5.7 2 .7 4.3-.1 6.3-.1.3-.3.6-.5.9-.1.2-.1.2 0 .4 0 .2.2.4.3.6.3.7.5 1.4.7 2.1.2 1.2.3 2.4.1 3.6-.1.6-.3 1.1-.6 1.6-.1.3-.3.5-.5.7 0 .1-.2.2-.3.3l-.2.2c-.1.2-.2 0 0 .3 0 .3.3.7.4 1s.3.7.4 1c.2.7.4 1.4.5 2.1.2 1.4.2 2.9-.5 4.2-.3.5-.7 1-1.2 1.4-.2.2-.5.3-.8.5-.1 0-.3 0-.4.2v.6c.2 1.4.3 2.9-.1 4.3-.4 1.3-1.2 2.4-2.4 3.2-2.2 1.5-5.1 1.4-7.3.2-.6-.3-1.1-.7-1.6-1.1-1.3 1.7-3.8 1.6-5.7 1.2-2.3-.6-4.1-2.2-5.2-4.3-1.4 1.8-4.5 1.2-5.5-.7-.2-.5-.4-1-.5-1.5v-.8c0-.3-.3-.7-.4-1-.3-.7-.4-1.3-.4-2v-1.1c0-.3 0-.6-.1-1 .6 0 1.3 0 1.9-.2.5-.2 1-.6 1.4-1 .9-.9 1.4-2.2 1.8-3.4.8-2.7.5-5.9-2.2-7.3-1.2-.7-5-.7-6.5-.3-1.6.4-3.3 3.8-3.4 4.1 0 .2 0 .4-.2.6-.4.3-1.1-.2-1.4-.5-.5-.4-.9-1-1.2-1.6-.7-1.3-1.3-2.6-1.6-4-.3-1.1-.5-2.2-.9-3.2s-1-2-2-2.6c-1.1-.6-2.3-1-3.4-1.4-1.2-.4-2.3-.9-3.2-1.7-.2-.2-.4-.4-.5-.6s-.2-.5-.4-.6c-.3-.2-.7.3-1 .4-1.3.8-2.3 1.9-3.2 3.1-.8 1.2-1.5 2.4-2.1 3.7-.4 1-.7 2.3-1.4 3.1-.3.4-2.8.6-3.5.3-.8-.3-1.7-1.2-1.9-1.7-.3-.5-.3-1.1-.2-1.7 0-.3.2-.7.3-1 0-.3.1-.6.3-.8.3-.5.7-.8 1.2-1-.6-.5-1-1.1-1.3-1.8s-.6-1.6-.7-2.4c0-.6 0-1.3.4-1.9s1-1 1.6-1.3c-.9-.7-1.6-1.5-2.2-2.4-1.2-1.8-1.9-4-1.3-6.1Z" class="st7"/></g><g id="Bottom_x2F_Standing_x2F_Skinny-Jeans-Walk"><path id="Leg2" d="m1274.1 462.2-45.8 121.3-32.2 89.4h-18.3l44.2-210.7z" class="st11" data-name="Leg"/><path id="Leg3" d="M1285.4 462.2c.5 41.6.1 97.6 1.3 100.2.8 1.7 24.8 21.4 72.2 59.1l-9.4 16.1c-56.2-36.3-85.8-56.8-88.7-61.6-4.3-7.2-26-73.9-37.3-113.8h61.8Z" class="st4" data-name="Leg"/><g id="Accessories_x2F_Shoe_x2F_Flat-Pointy"><path id="Shoe" d="m1375.5 632.3-15.9-12.1-12.9 15.3c-1 11.6-4.8 24.5-11.5 38.9l2.9 2.5 23.3-27.7 6.5-10.7 1.5 1.2 6.1-7.3Z" class="st7"/></g><g id="Accessories_x2F_Shoe_x2F_Flat-Pointy1" data-name="Accessories_x2F_Shoe_x2F_Flat-Pointy"><path id="Shoe1" d="m1197.8 690-1-20h-20q-14.25 10.05-37.2 16.2v3.8h36.2l12.4-1.9v1.9h9.5Z" class="st7" data-name="Shoe"/></g></g><g id="Body_x2F_Long-Sleeve"><path id="Skin1" d="m1192.1 424.3-37.6-5.1c-7.5-4.2-14.5-7-20.8-8.5-1.8 0-4.6.6-.4 4.1s8.5 7.4 7.7 9.3-4.7 1.2-5.3 4.1c-.4 1.9 5.9 2.2 19.1.9l30.5 12.1zm118.2 8.8h-20.9c22.9 51.6 34.8 78.6 35.8 81 2.2 5.5-2.5 13.8-4.5 18.3 6.5 2.9 5.8-7.9 14-4 7.5 3.5 13.2 9.8 21.8 4.5 1.1-.7 2.2-3.1-.6-5.1-7-4.8-17.1-13.2-18.5-16-1.9-3.8-10.9-30-27.2-78.6Z" class="st12" data-name="Skin"/><path id="Clothes-Back" d="m1253.2 366.9-16.3 1.1c-4 36.4-25.9 59.4-75 51.6l-6.5 46.9c45.9 5.9 86.1-12.4 94.4-62.2 2.1-12.9 3.8-26.3 3.5-37.4Z" class="st1"/><path id="Clothes1" d="m1261.2 362.1-24.8 5.7c0 42.6-13.6 69.8-20.5 101.1h66.9c.9 10.8 1.5 21.9 1.8 33.4h50.1c-11.3-60.4-35.3-107.1-71.8-140.1h-1.6Z" class="st2" data-name="Clothes"/><path id="Shade" d="M1272.3 408.1c1.7 26.5.7 46.8-3 60.8h13.6c-1.9-21.4-5.2-41.7-10.6-60.8" style="fill-rule:evenodd;fill-opacity:.1;fill:#004d4d"/></g></g></g><path id="Leg4" d="m1032.6 455.2 14.7 121.7 19.3 99.2-10.5 5.7-59.5-207z" class="st9" data-name="Leg"/><g id="Head_x2F_Front_x2F_Short-1"><path id="Head2" d="M1016.6 352.7c4.2-5 7.1-11 6.6-17.9-1.4-19.6-28.7-15.3-34-5.4s-4.7 35.1 2.2 36.8c2.7.7 8.6-1 14.5-4.6l-3.7 26.4h22z" class="st8" data-name="Head"/><path id="Hair" d="M998.8 330.9c3 1.7 5.1 4.8 7.7 8.9.6-.2 1.3-.4 2-.4 3 0 5.5 2.5 5.5 5.5s-.6 2.9-1.7 3.9c1.3 1.8 2.7 3.7 4.3 5.6 6.1-3.7 10.6-14.3 4.8-24.6-5-20.6-33.4-7.8-38.9-11.3-1.2 7.5 2.7 13.5 16.2 12.4Z" class="st7"/></g><path id="Leg5" d="m1025 467.7-45 114-30.2 96.4h-12L984 467.7z" class="st9" data-name="Leg"/><g id="Accessories_x2F_Shoe_x2F_Flat-Sneaker2" data-name="Accessories_x2F_Shoe_x2F_Flat-Sneaker"><path id="shoe2" d="M954.7 673.7c1 2.7 1.5 4.8 1.5 6.2s-.3 4.1-.8 7.2h-51.8c-1.3-4.4-.6-6.8 2.3-7.2s5.3-.7 7.2-1l24.1-10.7c.5-.2 1 0 1.2.5l1.5 3.8c2.7 1.3 4.9 1.9 6.5 1.9s3.2-.6 5.6-1.7c.9-.4 2 0 2.4.9v.1Z" class="st2" data-name="shoe"/></g><path id="Pant" d="m994.7 668.7-56.7-6.1 42.1-194.3h50.8z" style="fill-rule:evenodd;fill:#7ec8c8"/><path id="Skin2" d="m959.7 347.4-29.2-23.6c-4.3-7.4-8.7-13.3-13.3-17.8-1.5-1-4.2-1.9-2.4 3.3 1.8 5.1 3.5 10.6 1.9 11.8s-4.5-1.4-6.5.7c-1.3 1.4 3.9 4.9 15.7 10.6l19.7 25.8 14.2-10.8Zm122 126.6 8.9 36.5c4.9 7 8.3 13.5 10.4 19.6.2 1.7-.1 4.6-4 .8s-8.1-7.6-9.9-6.7-.7 4.7-3.4 5.6c-1.8.6-2.8-5.6-2.9-18.7l-14.9-28.9z" class="st8" data-name="Skin"/><path id="Pant1" d="M990.6 472.7h50.8l42.1 194.3-56.8 6.1z" class="st1" data-name="Pant"/><path id="Clothes-Front" d="M996.7 380.2c1 60.3-34.1 75.7-26.3 99.9 6.5 20 68.2 41.5 78.9 21.9 4.3-7.9 6.3-17.5 6.5-27.9 2.7 8 4.9 14.9 6.5 20.7 2.7 10 13.4 11.6 13.4 15.4l14-3.8c-.9-5.2 5.7-7.8 3.9-19.4-7.9-52.2-29.2-90.1-63.9-113.6l-.4-5.2c-.1-2-1.9-3.5-3.9-3.4s-25.9 1.8-25.9 1.8c-2 .1-3.5 1.9-3.4 3.9l.7 9.8Z" class="st5"/><path id="Clothes-Back1" d="m1035.4 418.4 1.6-8.2c-45.2-14-74.7-81.4-91.6-85.9-6.2-1.6-9.5 2.8-11.3.4l-8 10.5c2.1 1.9-1.9 5.6.6 13.8 2.5 8.1 54.8 68.1 108.8 69.4Z" class="st5" data-name="Clothes-Back"/><g id="Accessories_x2F_Shoe_x2F_Flat-Sneaker3" data-name="Accessories_x2F_Shoe_x2F_Flat-Sneaker"><path id="shoe3" d="M1069.4 676.6c1 2.7 1.5 4.8 1.5 6.2s-.3 4.1-.8 7.2h-51.8c-1.3-4.4-.6-6.8 2.3-7.2s5.3-.7 7.2-1l24.1-10.7c.5-.2 1 0 1.2.5l1.5 3.8c2.7 1.3 4.9 1.9 6.5 1.9s3.2-.6 5.6-1.7c.9-.4 2 0 2.4.9v.1Z" class="st2" data-name="shoe"/></g></svg>